<svg xmlns="http://www.w3.org/2000/svg" width="613.502" height="430.75" viewBox="0 0 613.502 430.75">
  <defs>
    <style>
      .cls-1 {
        fill: #fff;
      }
    </style>
  </defs>
  <g id="logo-bianco" transform="translate(-38.127 -11)">
    <path id="Path_1" data-name="Path 1" class="cls-1" d="M76.906,493.792c0-6.337,6.883-12.391,15.7-12.391,9.366,0,17.065,6.334,17.065,16.8h34.44c0-21.213-17.357-45.449-50.959-45.449-26.434,0-49.843,16.53-49.843,41.32,0,43.786,66.362,37.995,66.362,60.309,0,5.78-4.121,12.677-16.519,12.677H91.774c-11.563,0-18.452-8.267-18.452-16.809H38.612c0,23.146,21.757,45.722,52.337,45.722h2.2c26.732,0,51.775-19.552,51.775-42.689C144.921,505.628,76.906,512.789,76.906,493.792Z" transform="translate(-0.221 -201.04)"/>
    <rect id="Rectangle_1" data-name="Rectangle 1" class="cls-1" width="35.81" height="35.254" transform="translate(245.193 199.393)"/>
    <path id="Path_2" data-name="Path 2" class="cls-1" d="M413.708,457.8H332.742v28.657h47.646V566.87H332.742v28.64H454.457V566.87H413.708Z" transform="translate(-134.078 -203.337)"/>
    <path id="Path_3" data-name="Path 3" class="cls-1" d="M727.12,559.447H699.861V545.676c25.334-2.206,44.886-21.484,44.886-43.233v-16.53c0-9.648-1.935-17.636-6.6-23.418,3.021-4.131,5.781-6.6,14.849-6.6V426.967c-23.392,0-30.018,6.889-38.822,17.9a57,57,0,0,0-18.733-3.848c-27.531,0-51.223,20.37-51.223,44.9v16.53c0,15.412,10.466,29.464,25.88,37.171v19.833h-1.654c-20.086,0-36.07,15.974-36.07,34.974v1.924c0,19.288,15.985,34.709,36.07,34.709h58.394c20.4,0,36.625-15.421,36.625-34.709v-1.924C763.463,575.422,747.234,559.447,727.12,559.447Zm-48.464-75.458c0-8,6.882-14.053,16.786-14.053,8.258,0,16.255,6.056,16.255,14.053v19.543c0,7.989-8,14.053-16.255,14.053-9.9,0-16.786-6.064-16.786-14.053Zm43.226,120.354H669.007c-5.783,0-10.184-3.868-10.184-8.824,0-5.229,4.4-9.085,10.184-9.085h53.148c5.519,0,9.912,3.856,9.912,8.8C732.067,600.475,727.674,604.343,721.882,604.343Z" transform="translate(-270.439 -189.305)"/>
    <path id="Path_4" data-name="Path 4" class="cls-1" d="M1020.609,452.753a46.079,46.079,0,0,0-30.572,11.836V455.5H957.8V593.212h33.877V501.78c0-10.467,10.467-20.1,23.144-20.1,12.111,0,21.478,9.358,21.478,20.367v91.162h33.866V502.323A49.543,49.543,0,0,0,1020.609,452.753Z" transform="translate(-418.542 -201.04)"/>
    <path id="Path_5" data-name="Path 5" class="cls-1" d="M91.01,11H38.127V203.786H91.01a53.6,53.6,0,0,0,53.707-53.708V64.7A53.605,53.605,0,0,0,91.01,11Zm19.552,140.458a19.929,19.929,0,0,1-20.379,20.106h-19V43.223h19A20.162,20.162,0,0,1,110.562,63.61Z"/>
    <rect id="Rectangle_2" data-name="Rectangle 2" class="cls-1" width="424.176" height="28.181" transform="translate(212.882 108.057)"/>
  </g>
</svg>
