<svg xmlns="http://www.w3.org/2000/svg" width="26.66" height="26.66" viewBox="0 0 26.66 26.66">
  <path id="facebook" d="M1270.87,1467.67h-23.74a1.468,1.468,0,0,0-1.46,1.46v23.74a1.364,1.364,0,0,0,.11.56,1.524,1.524,0,0,0,.79.79,1.364,1.364,0,0,0,.56.11h12.78V1484h-3.47v-4h3.47v-3a4.733,4.733,0,0,1,.24-2.08,4.819,4.819,0,0,1,4.93-3.25,24.823,24.823,0,0,1,3.11.16v3.6h-2.12c-1.68,0-2,.8-2,1.96v2.57h4l-.52,4h-3.48v10.37h6.8a1.364,1.364,0,0,0,.56-.11,1.524,1.524,0,0,0,.79-.79,1.364,1.364,0,0,0,.11-.56v-23.74a1.364,1.364,0,0,0-.11-.56,1.524,1.524,0,0,0-.79-.79A1.364,1.364,0,0,0,1270.87,1467.67Z" transform="translate(-1245.67 -1467.67)" fill="#fff"/>
</svg>
