<svg xmlns="http://www.w3.org/2000/svg" width="26.66" height="26.66" viewBox="0 0 26.66 26.66">
  <path id="instagram" d="M1218.12,1472.28a1.556,1.556,0,0,0-.89.27,1.655,1.655,0,0,0-.59.72,1.606,1.606,0,0,0-.09.92,1.611,1.611,0,0,0,1.26,1.26,1.606,1.606,0,0,0,.92-.09,1.655,1.655,0,0,0,.72-.59,1.556,1.556,0,0,0,.27-.89,1.6,1.6,0,0,0-1.6-1.6Zm6.13,3.23a9.949,9.949,0,0,0-.61-3.24,6.549,6.549,0,0,0-1.55-2.36,6.2,6.2,0,0,0-2.36-1.54,9.656,9.656,0,0,0-3.24-.62c-1.41-.08-1.86-.08-5.49-.08s-4.08,0-5.49.08a9.656,9.656,0,0,0-3.24.62,6.4,6.4,0,0,0-2.36,1.54,6.2,6.2,0,0,0-1.54,2.36,9.656,9.656,0,0,0-.62,3.24c-.08,1.41-.08,1.86-.08,5.49s0,4.08.08,5.49a9.656,9.656,0,0,0,.62,3.24,6.2,6.2,0,0,0,1.54,2.36,6.4,6.4,0,0,0,2.36,1.54,9.656,9.656,0,0,0,3.24.62c1.41.08,1.86.08,5.49.08s4.08,0,5.49-.08a9.656,9.656,0,0,0,3.24-.62,6.2,6.2,0,0,0,2.36-1.54,6.422,6.422,0,0,0,1.55-2.36,9.949,9.949,0,0,0,.61-3.24c0-1.41.08-1.86.08-5.49S1224.33,1476.92,1224.25,1475.51Zm-2.4,10.82a7.455,7.455,0,0,1-.45,2.48,4.026,4.026,0,0,1-1,1.54,4.32,4.32,0,0,1-1.53,1,7.545,7.545,0,0,1-2.48.45c-1.34.07-1.83.08-5.34.08s-4,0-5.33-.08a7.624,7.624,0,0,1-2.59-.4,4.321,4.321,0,0,1-1.46-1,3.964,3.964,0,0,1-.99-1.53,7.166,7.166,0,0,1-.53-2.54c0-1.33-.08-1.82-.08-5.33s0-4,.08-5.33a7.32,7.32,0,0,1,.46-2.54,5.848,5.848,0,0,1,2.52-2.53,7.594,7.594,0,0,1,2.54-.45c1.33,0,1.82-.08,5.33-.08s4,0,5.33.08a7.455,7.455,0,0,1,2.48.45,4.106,4.106,0,0,1,1.59,1.07,4.053,4.053,0,0,1,1,1.46,7.352,7.352,0,0,1,.45,2.54c.07,1.33.08,1.82.08,5.33S1221.92,1485,1221.85,1486.33ZM1211,1474.16a6.836,6.836,0,0,0-6.31,4.23,6.843,6.843,0,0,0,4.99,9.32,6.836,6.836,0,0,0,8.17-6.71,6.552,6.552,0,0,0-.52-2.62,6.649,6.649,0,0,0-1.48-2.22,6.788,6.788,0,0,0-4.85-2Zm0,11.28a4.434,4.434,0,0,1-4.1-2.74,4.344,4.344,0,0,1-.25-2.57,4.414,4.414,0,0,1,3.48-3.48,4.344,4.344,0,0,1,2.57.25,4.434,4.434,0,0,1,2.74,4.1,4.445,4.445,0,0,1-4.44,4.44Z" transform="translate(-1197.67 -1467.67)" fill="#fff"/>
</svg>
