<svg xmlns="http://www.w3.org/2000/svg" width="32.733" height="32.733" viewBox="0 0 32.733 32.733">
  <g id="Group_298" data-name="Group 298" transform="translate(-29.159 -7119.517)">
    <path id="Path_1287" data-name="Path 1287" d="M36.344.1c-4.445,0-5,.017-6.749.1a11.912,11.912,0,0,0-3.971.762,8,8,0,0,0-2.9,1.885,8.041,8.041,0,0,0-1.888,2.9,11.984,11.984,0,0,0-.76,3.974c-.081,1.745-.1,2.3-.1,6.744s.017,5,.1,6.749a12,12,0,0,0,.76,3.974,8.368,8.368,0,0,0,4.788,4.785,12.037,12.037,0,0,0,3.971.762c1.748.078,2.3.1,6.749.1s5-.02,6.749-.1a12.037,12.037,0,0,0,3.971-.762,8.368,8.368,0,0,0,4.788-4.785,12,12,0,0,0,.76-3.974c.081-1.745.1-2.3.1-6.749s-.017-5-.1-6.744a11.984,11.984,0,0,0-.76-3.974,8.041,8.041,0,0,0-1.888-2.9,8,8,0,0,0-2.9-1.885A11.912,11.912,0,0,0,43.094.2c-1.745-.081-2.3-.1-6.749-.1m0,2.947c4.371,0,4.888.02,6.614.1A9.006,9.006,0,0,1,46,3.708a5.084,5.084,0,0,1,1.88,1.226A5.054,5.054,0,0,1,49.1,6.814a9.07,9.07,0,0,1,.561,3.04c.081,1.728.1,2.243.1,6.612s-.017,4.888-.1,6.614a9.055,9.055,0,0,1-.561,3.04A5.063,5.063,0,0,1,47.879,28,5.115,5.115,0,0,1,46,29.229a9.2,9.2,0,0,1-3.04.561c-1.726.078-2.243.1-6.614.1s-4.888-.017-6.614-.1a9.2,9.2,0,0,1-3.04-.561,5.437,5.437,0,0,1-3.106-3.109,9.055,9.055,0,0,1-.561-3.04c-.081-1.726-.1-2.243-.1-6.614s.015-4.883.1-6.612a9.07,9.07,0,0,1,.561-3.04,5.084,5.084,0,0,1,1.226-1.88,5.084,5.084,0,0,1,1.88-1.226,9.006,9.006,0,0,1,3.04-.561c1.726-.078,2.243-.1,6.614-.1" transform="translate(9.181 7119.415)" fill="#ed1c17"/>
    <path id="Path_1288" data-name="Path 1288" d="M31.63,17.21a5.456,5.456,0,1,1,5.457-5.457A5.455,5.455,0,0,1,31.63,17.21m0-13.861a8.405,8.405,0,1,0,8.4,8.4,8.406,8.406,0,0,0-8.4-8.4" transform="translate(13.896 7124.128)" fill="#ed1c17"/>
    <path id="Path_1289" data-name="Path 1289" d="M33.344,4.377a1.964,1.964,0,1,1-1.964-1.964,1.965,1.965,0,0,1,1.964,1.964" transform="translate(22.882 7122.77)" fill="#ed1c17"/>
  </g>
</svg>
