<svg xmlns="http://www.w3.org/2000/svg" width="26.5" height="26.662" viewBox="0 0 26.5 26.662">
  <path id="linkedin" d="M1174.29,1467.67h-22.58a1.912,1.912,0,0,0-.75.13,2.209,2.209,0,0,0-.63.41,1.961,1.961,0,0,0-.43.63,1.835,1.835,0,0,0-.15.73v22.86a1.835,1.835,0,0,0,.15.73,1.961,1.961,0,0,0,.43.63,2.209,2.209,0,0,0,.63.41,1.912,1.912,0,0,0,.75.13h22.58a1.912,1.912,0,0,0,.75-.13,2.209,2.209,0,0,0,.63-.41,1.961,1.961,0,0,0,.43-.63,1.835,1.835,0,0,0,.15-.73v-22.86a1.835,1.835,0,0,0-.15-.73,1.961,1.961,0,0,0-.43-.63,2.209,2.209,0,0,0-.63-.41A1.912,1.912,0,0,0,1174.29,1467.67Zm-16.5,22.32h-4v-12h4Zm-2-13.68a2.08,2.08,0,0,1,0-4.16,1.976,1.976,0,0,1,.87.08,2.2,2.2,0,0,1,.76.43,2.12,2.12,0,0,1,0,3.13,2.2,2.2,0,0,1-.76.43A2.141,2.141,0,0,1,1155.79,1476.31Zm16.42,13.68h-4v-6.44c0-1.62-.57-2.67-2.02-2.67a2.192,2.192,0,0,0-1.26.4,2.25,2.25,0,0,0-.8,1.05,2.732,2.732,0,0,0-.13.98v6.66h-4v-12h4v1.7a4.034,4.034,0,0,1,1.53-1.51,3.994,3.994,0,0,1,2.08-.49c2.67,0,4.6,1.72,4.6,5.41Z" transform="translate(-1149.75 -1467.669)" fill="#fff"/>
</svg>
