<svg xmlns="http://www.w3.org/2000/svg" width="33.028" height="33.23" viewBox="0 0 33.028 33.23">
  <path id="Path_1290" data-name="Path 1290" d="M1180.335,1467.67h-28.142a2.385,2.385,0,0,0-.935.162,2.756,2.756,0,0,0-.785.511,2.444,2.444,0,0,0-.536.785,2.286,2.286,0,0,0-.187.91v28.491a2.286,2.286,0,0,0,.187.91,2.443,2.443,0,0,0,.536.785,2.753,2.753,0,0,0,.785.511,2.383,2.383,0,0,0,.935.162h28.142a2.383,2.383,0,0,0,.935-.162,2.753,2.753,0,0,0,.785-.511,2.445,2.445,0,0,0,.536-.785,2.288,2.288,0,0,0,.187-.91v-28.491a2.288,2.288,0,0,0-.187-.91,2.447,2.447,0,0,0-.536-.785,2.756,2.756,0,0,0-.785-.511A2.385,2.385,0,0,0,1180.335,1467.67Zm-20.564,27.818h-4.985v-14.956h4.985Zm-2.493-17.05a2.592,2.592,0,0,1,0-5.185,2.462,2.462,0,0,1,1.084.1,2.745,2.745,0,0,1,.947.536,2.642,2.642,0,0,1,0,3.9,2.747,2.747,0,0,1-.947.536A2.669,2.669,0,0,1,1157.278,1478.439Zm20.465,17.05h-4.985v-8.026c0-2.019-.71-3.328-2.518-3.328a2.732,2.732,0,0,0-1.57.5,2.8,2.8,0,0,0-1,1.308,3.408,3.408,0,0,0-.162,1.222v8.3h-4.985v-14.956h4.985v2.119a4.941,4.941,0,0,1,4.5-2.493c3.328,0,5.733,2.144,5.733,6.743Z" transform="translate(-1149.75 -1467.669)" fill="#ed1c17"/>
</svg>
