<svg xmlns="http://www.w3.org/2000/svg" width="37.621" height="30.6" viewBox="0 0 37.621 30.6">
  <path id="Path_1285" data-name="Path 1285" d="M63.9.427h1.253l.127.032c.326.054.652.086.976.159a7.633,7.633,0,0,1,3.8,2.128.223.223,0,0,0,.228.091A15.577,15.577,0,0,0,74.238,1.43c.27-.14.539-.289.838-.449a7.837,7.837,0,0,1-3.349,4.263,15.52,15.52,0,0,0,4.388-1.214c-.059.088-.081.13-.113.172a15.578,15.578,0,0,1-3.626,3.758.27.27,0,0,0-.123.245c0,.481.01.959,0,1.434a19.5,19.5,0,0,1-.51,4.082,22.64,22.64,0,0,1-6.364,11.427,20.366,20.366,0,0,1-5.69,3.9,21.7,21.7,0,0,1-7.244,1.89A24.329,24.329,0,0,1,49.316,31a20.113,20.113,0,0,1-3.251-.385,21.782,21.782,0,0,1-7.4-2.925c-.059-.034-.113-.076-.169-.11a16.512,16.512,0,0,0,5.982-.5,15.471,15.471,0,0,0,5.376-2.716,7.7,7.7,0,0,1-7.163-5.381,7.844,7.844,0,0,0,3.4-.12,7.694,7.694,0,0,1-6.1-7.673,7.4,7.4,0,0,0,3.361.927A7.793,7.793,0,0,1,40.2,7.409a7.675,7.675,0,0,1,.856-5.57A22.073,22.073,0,0,0,56.965,9.914a.735.735,0,0,0-.017-.157,7.339,7.339,0,0,1,.083-3.528A7.6,7.6,0,0,1,62.88.6c.331-.081.674-.11,1.02-.169" transform="translate(-38.495 -0.427)" fill="#ed1c17"/>
</svg>
