<svg xmlns="http://www.w3.org/2000/svg" width="26.66" height="21.706" viewBox="0 0 26.66 21.706">
  <path id="twitter" d="M1320.33,1472.73a11.094,11.094,0,0,1-3.14.86,5.534,5.534,0,0,0,2.41-3.03,10.912,10.912,0,0,1-3.48,1.33,5.466,5.466,0,0,0-6.59-1.11,5.434,5.434,0,0,0-2.74,6.1,15.482,15.482,0,0,1-11.27-5.72,5.556,5.556,0,0,0-.73,2.76,5.39,5.39,0,0,0,.64,2.58,5.521,5.521,0,0,0,1.78,1.97,5.517,5.517,0,0,1-2.48-.68v.06a5.483,5.483,0,0,0,4.4,5.34,5.164,5.164,0,0,1-1.46.22,5.881,5.881,0,0,1-1.03-.09,5.492,5.492,0,0,0,5.11,3.79,10.952,10.952,0,0,1-6.75,2.34,8.4,8.4,0,0,1-1.33-.08,15.526,15.526,0,0,0,24-13.1v-.71A11.192,11.192,0,0,0,1320.33,1472.73Z" transform="translate(-1293.67 -1470.135)" fill="#fff"/>
</svg>
