<svg xmlns="http://www.w3.org/2000/svg" width="31.014" height="21.71" viewBox="0 0 31.014 21.71">
  <path id="Path_1289" data-name="Path 1289" d="M89.217,4.252a3.887,3.887,0,0,0-2.741-2.743C84.056.861,74.358.861,74.358.861s-9.7,0-12.116.648A3.887,3.887,0,0,0,59.5,4.252a40.26,40.26,0,0,0-.649,7.464A40.276,40.276,0,0,0,59.5,19.18a3.887,3.887,0,0,0,2.741,2.743c2.418.648,12.116.648,12.116.648s9.7,0,12.118-.648a3.887,3.887,0,0,0,2.741-2.743,40.388,40.388,0,0,0,.648-7.465,40.372,40.372,0,0,0-.648-7.464M71.257,16.368v-9.3l8.056,4.651Z" transform="translate(-58.851 -0.861)" fill="#fff"/>
</svg>
