<svg xmlns="http://www.w3.org/2000/svg" width="41.441" height="29.009" viewBox="0 0 41.441 29.009">
  <path id="Path_1290" data-name="Path 1290" d="M99.426,5.391a5.194,5.194,0,0,0-3.663-3.665C92.53.861,79.571.861,79.571.861s-12.959,0-16.19.865a5.193,5.193,0,0,0-3.663,3.665c-.868,3.231-.868,9.973-.868,9.973s0,6.744.868,9.975A5.193,5.193,0,0,0,63.381,29c3.231.865,16.19.865,16.19.865s12.959,0,16.192-.865a5.193,5.193,0,0,0,3.663-3.665c.865-3.231.865-9.975.865-9.975s0-6.742-.865-9.973m-24,16.19V9.15l10.765,6.215Z" transform="translate(-58.851 -0.861)" fill="#ed1c17"/>
</svg>
