<?xml version="1.0" encoding="UTF-8"?><svg id="Livello_2" xmlns="http://www.w3.org/2000/svg" viewBox="0 0 105.22 109.67"><defs><style>.cls-1{fill:#e73137;}.cls-2{fill:none;stroke:#e73137;stroke-miterlimit:10;stroke-width:5px;}</style></defs><g id="Livello_1-2"><g><g><g><path class="cls-2" d="m37.58,12.94c0,5.76-4.67,15.29-10.44,15.29s-10.44-9.53-10.44-15.29S21.38,2.5,27.14,2.5s10.44,4.67,10.44,10.44Z"/><path class="cls-2" d="m49.04,65.29v-23.96c0-4.17-2.53-7.93-6.39-9.5h0c-3.53-1.44-7.31-2.18-11.12-2.18h-8.77c-3.81,0-7.59.74-11.12,2.18h0c-3.86,1.57-6.39,5.33-6.39,9.5v23.96s21.38,8.72,43.78,0Z"/></g><g><path class="cls-2" d="m91.27,44.14c0,5.76-4.67,15.29-10.44,15.29s-10.44-9.53-10.44-15.29,4.67-10.44,10.44-10.44,10.44,4.67,10.44,10.44Z"/><path class="cls-2" d="m102.72,96.49v-23.96c0-4.17-2.53-7.93-6.39-9.5h0c-3.53-1.44-7.31-2.18-11.12-2.18h-8.77c-3.81,0-7.59.74-11.12,2.18h0c-3.86,1.57-6.39,5.33-6.39,9.5v23.96s21.38,8.72,43.78,0Z"/></g><path class="cls-2" d="m5.97,75.85c7.29,18.35,25.21,31.33,46.17,31.33,4.08,0,8.05-.49,11.85-1.42"/><path class="cls-2" d="m96.85,26.39C88.11,12.18,72.42,2.7,54.51,2.7c-4.08,0-8.05.49-11.85,1.42"/><polyline class="cls-2" points="98.16 13.55 97.07 26.25 84.37 25.16"/><polyline class="cls-2" points="2.4 88.4 5.91 76.15 18.16 79.65"/></g><g><circle class="cls-1" cx="27.14" cy="37.52" r="3.82"/><polygon class="cls-1" points="27.14 62.5 22.65 50.36 27.14 38.23 31.63 50.36 27.14 62.5"/></g><g><circle class="cls-1" cx="80.83" cy="68.71" r="3.82"/><polygon class="cls-1" points="80.83 93.7 76.34 81.56 80.83 69.43 85.32 81.56 80.83 93.7"/></g></g></g></svg>