<svg xmlns="http://www.w3.org/2000/svg" width="65.876" height="66.469" viewBox="0 0 65.876 66.469">
  <g id="Group_109" data-name="Group 109" transform="translate(-524 -2012.486)">
    <path id="Path_1200" data-name="Path 1200" d="M55.938,20.508H55.61A21.848,21.848,0,0,0,33.832,0h-.621A21.849,21.849,0,0,0,11.431,20.508H11.1a4.62,4.62,0,0,0-4.616,4.615v13.17A4.621,4.621,0,0,0,11.1,42.908h3.3a4.621,4.621,0,0,0,4.616-4.616V25.123A4.62,4.62,0,0,0,14.4,20.508h-.218A19.1,19.1,0,0,1,33.211,2.731h.621A19.1,19.1,0,0,1,52.856,20.508h-.217a4.621,4.621,0,0,0-4.617,4.615v13.17a4.622,4.622,0,0,0,4.617,4.616h.2a19.218,19.218,0,0,1-9.664,14.977,4.431,4.431,0,0,1,.571,2.145v.629A21.957,21.957,0,0,0,55.584,42.908h.354a4.621,4.621,0,0,0,4.616-4.616V25.123a4.62,4.62,0,0,0-4.616-4.615m-39.65,4.615v13.17A1.887,1.887,0,0,1,14.4,40.177H11.1a1.886,1.886,0,0,1-1.885-1.885V25.123A1.886,1.886,0,0,1,11.1,23.238h3.3a1.887,1.887,0,0,1,1.885,1.884m41.535,13.17a1.887,1.887,0,0,1-1.885,1.885h-3.3a1.887,1.887,0,0,1-1.886-1.885V25.123a1.887,1.887,0,0,1,1.886-1.884h3.3a1.887,1.887,0,0,1,1.885,1.884Z" transform="translate(523.417 2012.486)" fill="#ed1c17"/>
    <path id="Path_1201" data-name="Path 1201" d="M40.994,62.528H28.89a3.12,3.12,0,0,0-3.117,3.117v3.321a3.12,3.12,0,0,0,3.117,3.117h12.1a3.12,3.12,0,0,0,3.117-3.117V65.645a3.12,3.12,0,0,0-3.117-3.117m.387,6.439a.387.387,0,0,1-.387.387H28.89a.387.387,0,0,1-.386-.387V65.645a.386.386,0,0,1,.386-.387h12.1a.387.387,0,0,1,.387.387Z" transform="translate(521.686 2006.872)" fill="#ed1c17"/>
    <g id="Group_107" data-name="Group 107" transform="translate(524 2038.491)">
      <rect id="Rectangle_56" data-name="Rectangle 56" width="2.731" height="11.406" transform="translate(0 0)" fill="#ed1c17"/>
    </g>
    <g id="Group_108" data-name="Group 108" transform="translate(587.146 2038.492)">
      <rect id="Rectangle_56-2" data-name="Rectangle 56" width="2.731" height="11.405" transform="translate(0 0)" fill="#ed1c17"/>
    </g>
  </g>
</svg>
