<svg xmlns="http://www.w3.org/2000/svg" width="31.017" height="38.771" viewBox="0 0 31.017 38.771">
  <path id="Path_342" data-name="Path 342" d="M132.693,3176.509h1.939a2,2,0,0,0,1.371-.562,1.952,1.952,0,0,0,0-2.753,2,2,0,0,0-1.371-.562h-1.939a2,2,0,0,0-1.371.562,1.952,1.952,0,0,0,0,2.753A2,2,0,0,0,132.693,3176.509Zm0,3.877a2,2,0,0,0-1.371.562,1.952,1.952,0,0,0,0,2.753,1.994,1.994,0,0,0,1.371.562h11.631a1.994,1.994,0,0,0,1.371-.562,1.952,1.952,0,0,0,0-2.753,2,2,0,0,0-1.371-.562Zm21.324-5.932a2.68,2.68,0,0,0-.116-.523v-.174a2.058,2.058,0,0,0-.368-.542L141.9,3161.582a2.054,2.054,0,0,0-.543-.368h-.174a1.517,1.517,0,0,0-.64-.213H128.816a5.82,5.82,0,0,0-5.816,5.815v27.14a5.82,5.82,0,0,0,5.816,5.816H148.2a5.82,5.82,0,0,0,5.816-5.816v-19.5Zm-11.631-6.843,5.021,5.021h-3.082a2,2,0,0,1-1.371-.562,1.94,1.94,0,0,1-.568-1.376Zm7.754,26.345a1.94,1.94,0,0,1-.568,1.376,2,2,0,0,1-1.371.562H128.816a2,2,0,0,1-1.371-.562,1.94,1.94,0,0,1-.568-1.376v-27.14a1.938,1.938,0,0,1,.568-1.376,2,2,0,0,1,1.371-.562h9.693v5.816a5.82,5.82,0,0,0,5.816,5.815h5.816Zm-5.816-5.815H132.693a2,2,0,0,0-1.371.562,1.952,1.952,0,0,0,0,2.753,2,2,0,0,0,1.371.562h11.631a2,2,0,0,0,1.371-.562,1.952,1.952,0,0,0,0-2.753A2,2,0,0,0,144.324,3188.14Z" transform="translate(-123 -3161)" fill="#ed1c17"/>
</svg>
