<svg xmlns="http://www.w3.org/2000/svg" width="16" height="16" viewBox="0 0 16 16">
  <path id="arrow-up-right-from-square-solid" d="M9.143,33.143A1.142,1.142,0,0,1,10.286,32h4.539a1.17,1.17,0,0,1,.468.087,1.646,1.646,0,0,1,.371.245s0,0,0,.005a1.289,1.289,0,0,1,.332.8v4.575a1.143,1.143,0,0,1-2.286,0V35.9L7.664,41.95A1.141,1.141,0,1,1,6.05,40.336l6.046-6.05H10.286a1.142,1.142,0,0,1-1.143-1.143ZM0,35.429a2.286,2.286,0,0,1,2.286-2.286H5.714a1.143,1.143,0,0,1,0,2.286H2.286V45.714H12.571V42.286a1.143,1.143,0,0,1,2.286,0v3.429A2.288,2.288,0,0,1,12.571,48H2.286A2.287,2.287,0,0,1,0,45.714Z" transform="translate(0 -32)" fill="#ed1c17"/>
</svg>
