<svg xmlns="http://www.w3.org/2000/svg" width="20" height="20" viewBox="0 0 20 20">
  <path id="Path_1285" data-name="Path 1285" d="M585,3057.82a1.028,1.028,0,0,0-.707.29,1,1,0,0,0-.293.71V3066a1,1,0,0,1-.293.71,1.029,1.029,0,0,1-.707.29H572a1.029,1.029,0,0,1-.707-.29A1,1,0,0,1,571,3066v-11a1,1,0,0,1,.293-.71A1.029,1.029,0,0,1,572,3054h7.18a1.03,1.03,0,0,0,.707-.29,1.007,1.007,0,0,0,0-1.42,1.03,1.03,0,0,0-.707-.29H572a3,3,0,0,0-3,3v11a3,3,0,0,0,3,3h11a3,3,0,0,0,3-3v-7.18a1,1,0,0,0-.293-.71A1.028,1.028,0,0,0,585,3057.82Zm3.92-8.2a1.008,1.008,0,0,0-.54-.54.991.991,0,0,0-.38-.08h-6a1.029,1.029,0,0,0-.707.29,1.007,1.007,0,0,0,0,1.42,1.029,1.029,0,0,0,.707.29h3.59l-10.3,10.29a.911.911,0,0,0-.219.33.976.976,0,0,0,0,.76.911.911,0,0,0,.219.33,1.061,1.061,0,0,0,.325.22.966.966,0,0,0,.77,0,1.061,1.061,0,0,0,.325-.22l10.29-10.3V3056a1,1,0,0,0,.293.71,1.007,1.007,0,0,0,1.414,0A1,1,0,0,0,589,3056v-6A1.014,1.014,0,0,0,588.92,3049.62Z" transform="translate(-569 -3049)" fill="red"/>
</svg>
