<svg xmlns="http://www.w3.org/2000/svg" width="17.174" height="13.739" viewBox="0 0 17.174 13.739">
  <path id="Path_1233" data-name="Path 1233" d="M303.6,2827H291.576a2.578,2.578,0,0,0-2.576,2.576v8.587a2.578,2.578,0,0,0,2.576,2.576H303.6a2.578,2.578,0,0,0,2.576-2.576v-8.587A2.578,2.578,0,0,0,303.6,2827Zm-12.022,1.717H303.6a.884.884,0,0,1,.607.249.859.859,0,0,1,.252.61l-6.87,4.19-6.87-4.19a.859.859,0,0,1,.252-.61A.884.884,0,0,1,291.576,2828.717Zm12.881,9.446a.86.86,0,0,1-.252.61.885.885,0,0,1-.607.249H291.576a.885.885,0,0,1-.607-.249.86.86,0,0,1-.252-.61v-6.629l6.423,3.924a.882.882,0,0,0,.859,0l6.457-3.924Z" transform="translate(-289 -2827)" fill="#ed1c17"/>
</svg>
