<svg xmlns="http://www.w3.org/2000/svg" width="16.015" height="16" viewBox="0 0 16.015 16">
  <path id="Path_1116" data-name="Path 1116" d="M582.512,1489.862a2.533,2.533,0,0,1-.539-.1,8.048,8.048,0,0,1-1.054-.314,1.622,1.622,0,0,0-1.152.016,1.646,1.646,0,0,0-.844.789l-.177.362a10.033,10.033,0,0,1-2.149-1.61,10.435,10.435,0,0,1-1.61-2.141l.354-.226a1.61,1.61,0,0,0,.8-2,8.582,8.582,0,0,1-.314-1.054c-.04-.185-.072-.362-.1-.547a2.432,2.432,0,0,0-.837-1.449,2.4,2.4,0,0,0-1.578-.555h-2.415a2.451,2.451,0,0,0-.988.209,2.387,2.387,0,0,0-1.318,1.5,2.4,2.4,0,0,0-.085,1.022,15.3,15.3,0,0,0,13.265,13.265,2.041,2.041,0,0,0,.314,0,2.415,2.415,0,0,0,2.415-2.415V1492.2a2.417,2.417,0,0,0-2-2.343Zm.394,4.83a.808.808,0,0,1-.07.338.881.881,0,0,1-.207.282.848.848,0,0,1-.3.161.833.833,0,0,1-.345.024,13.678,13.678,0,0,1-11.84-11.9.8.8,0,0,1,.2-.66.786.786,0,0,1,.269-.2.767.767,0,0,1,.327-.072h2.415a.761.761,0,0,1,.517.177.778.778,0,0,1,.288.459q.048.326.121.652a8.718,8.718,0,0,0,.37,1.247l-1.127.523a.726.726,0,0,0-.255.185.85.85,0,0,0-.164.266.837.837,0,0,0-.049.314.811.811,0,0,0,.074.306,11.675,11.675,0,0,0,5.634,5.635.839.839,0,0,0,1.062-.419l.507-1.127a11.65,11.65,0,0,0,1.272.37c.209.048.435.088.652.121a.8.8,0,0,1,.628.8Z" transform="translate(-568.494 -1481.04)" fill="#ed1c17"/>
</svg>
