<svg id="Search" xmlns="http://www.w3.org/2000/svg" width="25.896" height="26" viewBox="0 0 25.896 26">
  <path id="Path_1158" data-name="Path 1158" d="M1209.819,2228.31l-2.7-2.763a4.189,4.189,0,0,0-2.1-1.055,4.1,4.1,0,0,0-2.332.313l-1.173-1.173a9.183,9.183,0,0,0,1.772-6.437,9.118,9.118,0,1,0-10.047,10.046,9.183,9.183,0,0,0,6.437-1.772l1.16,1.16a3.912,3.912,0,0,0-.378,2.371,3.848,3.848,0,0,0,1.068,2.137l2.762,2.762a3.951,3.951,0,0,0,6.4-1.277,3.994,3.994,0,0,0,0-3.036A3.907,3.907,0,0,0,1209.819,2228.31Zm-11.049-5.525a6.557,6.557,0,0,1-7.1,1.407,6.518,6.518,0,0,1,0-12.04,6.535,6.535,0,0,1,8.522,3.518,6.568,6.568,0,0,1,0,5A6.42,6.42,0,0,1,1198.77,2222.785Zm9.212,9.212a1.242,1.242,0,0,1-.43.286,1.228,1.228,0,0,1-.99,0,1.239,1.239,0,0,1-.43-.286l-2.762-2.763a1.245,1.245,0,0,1-.286-.43,1.227,1.227,0,0,1,0-.99,1.319,1.319,0,0,1,.716-.717,1.228,1.228,0,0,1,.99,0,1.243,1.243,0,0,1,.43.287l2.762,2.762a1.246,1.246,0,0,1,.286.43,1.229,1.229,0,0,1,0,.99A1.25,1.25,0,0,1,1207.982,2232Z" transform="translate(-1185.096 -2209.046)" fill="#767474"/>
</svg>
